<mxfile host="app.diagrams.net" agent="Mozilla/5.0 (Windows NT 10.0; Win64; x64; rv:137.0) Gecko/20100101 Firefox/137.0" version="26.2.14">
  <diagram name="Page-1" id="W1D7-TkC_mnnHBchoVUA">
    <mxGraphModel dx="906" dy="616" grid="1" gridSize="10" guides="1" tooltips="1" connect="1" arrows="1" fold="1" page="1" pageScale="1" pageWidth="850" pageHeight="1100" math="0" shadow="0">
      <root>
        <mxCell id="0" />
        <mxCell id="1" parent="0" />
        <mxCell id="45OGVPWpuCqW02UFijE5-1" value="&lt;div&gt;Controller&lt;/div&gt;&lt;div&gt;C(s)&lt;/div&gt;" style="rounded=0;whiteSpace=wrap;html=1;" vertex="1" parent="1">
          <mxGeometry x="240" y="240" width="90" height="50" as="geometry" />
        </mxCell>
        <mxCell id="45OGVPWpuCqW02UFijE5-9" style="edgeStyle=orthogonalEdgeStyle;rounded=0;orthogonalLoop=1;jettySize=auto;html=1;exitX=1;exitY=0.5;exitDx=0;exitDy=0;entryX=0;entryY=0.5;entryDx=0;entryDy=0;" edge="1" parent="1" source="45OGVPWpuCqW02UFijE5-6" target="45OGVPWpuCqW02UFijE5-7">
          <mxGeometry relative="1" as="geometry" />
        </mxCell>
        <mxCell id="45OGVPWpuCqW02UFijE5-10" value="&lt;div&gt;velocity&lt;/div&gt;&lt;div&gt;v(s)&lt;/div&gt;" style="edgeLabel;html=1;align=center;verticalAlign=middle;resizable=0;points=[];" vertex="1" connectable="0" parent="45OGVPWpuCqW02UFijE5-9">
          <mxGeometry x="-0.0967" y="2" relative="1" as="geometry">
            <mxPoint as="offset" />
          </mxGeometry>
        </mxCell>
        <mxCell id="45OGVPWpuCqW02UFijE5-26" style="edgeStyle=orthogonalEdgeStyle;rounded=0;orthogonalLoop=1;jettySize=auto;html=1;entryX=0.5;entryY=1;entryDx=0;entryDy=0;exitX=1;exitY=0.5;exitDx=0;exitDy=0;" edge="1" parent="1" source="45OGVPWpuCqW02UFijE5-7" target="45OGVPWpuCqW02UFijE5-19">
          <mxGeometry relative="1" as="geometry">
            <mxPoint x="160" y="275" as="targetPoint" />
            <mxPoint x="690" y="260" as="sourcePoint" />
            <Array as="points">
              <mxPoint x="690" y="265" />
              <mxPoint x="690" y="310" />
              <mxPoint x="160" y="310" />
            </Array>
          </mxGeometry>
        </mxCell>
        <mxCell id="45OGVPWpuCqW02UFijE5-32" value="&lt;div&gt;output&lt;/div&gt;&lt;div&gt;x(s)&lt;/div&gt;" style="edgeLabel;html=1;align=center;verticalAlign=middle;resizable=0;points=[];" vertex="1" connectable="0" parent="45OGVPWpuCqW02UFijE5-26">
          <mxGeometry x="-0.859" y="-2" relative="1" as="geometry">
            <mxPoint x="-18" y="-2" as="offset" />
          </mxGeometry>
        </mxCell>
        <mxCell id="45OGVPWpuCqW02UFijE5-7" value="&lt;div&gt;Plant&lt;/div&gt;&lt;div&gt;P(s)&lt;/div&gt;" style="rounded=0;whiteSpace=wrap;html=1;" vertex="1" parent="1">
          <mxGeometry x="540" y="240" width="90" height="50" as="geometry" />
        </mxCell>
        <mxCell id="45OGVPWpuCqW02UFijE5-20" style="edgeStyle=none;rounded=0;orthogonalLoop=1;jettySize=auto;html=1;entryX=0;entryY=0.5;entryDx=0;entryDy=0;" edge="1" parent="1" source="45OGVPWpuCqW02UFijE5-19" target="45OGVPWpuCqW02UFijE5-1">
          <mxGeometry relative="1" as="geometry" />
        </mxCell>
        <mxCell id="45OGVPWpuCqW02UFijE5-21" value="&lt;div&gt;error&lt;/div&gt;&lt;div&gt;e(s)&lt;/div&gt;" style="edgeLabel;html=1;align=center;verticalAlign=middle;resizable=0;points=[];" vertex="1" connectable="0" parent="45OGVPWpuCqW02UFijE5-20">
          <mxGeometry x="-0.1283" y="-2" relative="1" as="geometry">
            <mxPoint as="offset" />
          </mxGeometry>
        </mxCell>
        <mxCell id="45OGVPWpuCqW02UFijE5-19" value="" style="shape=sumEllipse;perimeter=ellipsePerimeter;whiteSpace=wrap;html=1;backgroundOutline=1;" vertex="1" parent="1">
          <mxGeometry x="140" y="245" width="40" height="40" as="geometry" />
        </mxCell>
        <mxCell id="45OGVPWpuCqW02UFijE5-33" style="edgeStyle=none;rounded=0;orthogonalLoop=1;jettySize=auto;html=1;" edge="1" parent="1">
          <mxGeometry relative="1" as="geometry">
            <mxPoint x="140" y="264.849393939394" as="targetPoint" />
            <mxPoint x="50" y="265" as="sourcePoint" />
          </mxGeometry>
        </mxCell>
        <mxCell id="45OGVPWpuCqW02UFijE5-34" value="&lt;div&gt;reference&lt;/div&gt;&lt;div&gt;r(s)&lt;/div&gt;" style="edgeLabel;html=1;align=center;verticalAlign=middle;resizable=0;points=[];" vertex="1" connectable="0" parent="45OGVPWpuCqW02UFijE5-33">
          <mxGeometry x="0.0407" relative="1" as="geometry">
            <mxPoint x="-7" as="offset" />
          </mxGeometry>
        </mxCell>
        <mxCell id="45OGVPWpuCqW02UFijE5-36" value="" style="edgeStyle=none;orthogonalLoop=1;jettySize=auto;html=1;rounded=0;" edge="1" parent="1">
          <mxGeometry width="100" relative="1" as="geometry">
            <mxPoint x="690" y="264.83" as="sourcePoint" />
            <mxPoint x="720" y="265.15" as="targetPoint" />
            <Array as="points" />
          </mxGeometry>
        </mxCell>
        <mxCell id="45OGVPWpuCqW02UFijE5-37" value="" style="edgeStyle=orthogonalEdgeStyle;rounded=0;orthogonalLoop=1;jettySize=auto;html=1;" edge="1" parent="1" source="45OGVPWpuCqW02UFijE5-1" target="45OGVPWpuCqW02UFijE5-6">
          <mxGeometry relative="1" as="geometry">
            <mxPoint x="430" y="265" as="targetPoint" />
            <mxPoint x="320" y="265" as="sourcePoint" />
          </mxGeometry>
        </mxCell>
        <mxCell id="45OGVPWpuCqW02UFijE5-38" value="&lt;div&gt;signal&lt;/div&gt;&lt;div&gt;u(s)&lt;/div&gt;" style="edgeLabel;html=1;align=center;verticalAlign=middle;resizable=0;points=[];" vertex="1" connectable="0" parent="45OGVPWpuCqW02UFijE5-37">
          <mxGeometry x="-0.0917" y="3" relative="1" as="geometry">
            <mxPoint as="offset" />
          </mxGeometry>
        </mxCell>
        <mxCell id="45OGVPWpuCqW02UFijE5-6" value="&lt;div&gt;Motor&lt;/div&gt;&lt;div&gt;M(s)&lt;/div&gt;" style="rounded=0;whiteSpace=wrap;html=1;" vertex="1" parent="1">
          <mxGeometry x="390" y="240" width="90" height="50" as="geometry" />
        </mxCell>
      </root>
    </mxGraphModel>
  </diagram>
</mxfile>
